<?xml version="1.0" encoding="utf-8"?>
<!-- Generator: Adobe Illustrator 26.0.3, SVG Export Plug-In . SVG Version: 6.00 Build 0)  -->
<svg version="1.1" id="레이어_1" xmlns="http://www.w3.org/2000/svg" xmlns:xlink="http://www.w3.org/1999/xlink" x="0px"
	 y="0px" viewBox="0 0 675.1 86" style="enable-background:new 0 0 675.1 86;" xml:space="preserve">
<style type="text/css">
	.st0{fill:#1B1C1D;}
</style>
<image style="display:none;overflow:visible;opacity:0.5;" width="662" height="86" xlink:href="../creator_logo.png"  transform="matrix(1 0 0 1 29.9673 0)">
</image>
<g>
	<path d="M195.8,60.3c4,0,7.4-1.1,10.2-3.2c2.7-2.2,4.6-5.2,5.5-9h8c-1.2,5.9-3.9,10.6-8.1,14.2c-4.3,3.6-9.5,5.3-15.6,5.3
		c-7.1,0-13.1-2.4-18-7.3c-4.9-4.8-7.4-10.9-7.4-18.1c0-7.3,2.4-13.3,7.3-18.1c4.9-4.8,10.9-7.2,18.1-7.2c6.1,0,11.3,1.8,15.6,5.3
		c4.3,3.5,7,8.2,8.1,14.1h-8c-1-3.8-2.8-6.8-5.5-9c-2.7-2.1-6.1-3.2-10.2-3.2c-5,0-9.2,1.7-12.6,5.1c-3.3,3.4-5,7.8-5,13
		c0,5.2,1.7,9.6,5,13C186.6,58.6,190.7,60.3,195.8,60.3z"/>
	<path d="M235.7,37.4c3.3-3.6,7.4-5.3,12.5-5.3v7.1c-5.4,0.2-9.6,2.3-12.5,6.2v21.3h-7.5V32.8h7.5V37.4z"/>
	<path d="M286.1,48.9c0,1.3,0,2.3-0.1,3.1l-0.1-0.1V52h-26.4c0.4,2.7,1.4,4.9,3.2,6.5c1.7,1.7,4.1,2.5,7.1,2.5
		c3.5,0,5.9-1.1,7.2-3.2h8.2c-1.1,3-3,5.4-5.8,7.1c-2.8,1.7-6,2.6-9.7,2.6c-5.3,0-9.6-1.7-12.9-5.1c-3.3-3.4-5-7.6-5-12.7
		c0-5,1.6-9.3,4.9-12.7c3.3-3.4,7.4-5.1,12.5-5.1c4.9,0,9,1.6,12.2,4.7C284.6,39.8,286.1,43.8,286.1,48.9z M275.8,40.5
		c-1.6-1.5-3.8-2.2-6.5-2.2c-2.7,0-4.9,0.8-6.5,2.4c-1.7,1.6-2.7,3.6-3.2,6.1h19.1C278.4,44.1,277.4,42,275.8,40.5z"/>
	<path d="M320.3,32.8h7.4v33.8h-7.4V64c-3,2.4-6.6,3.5-10.9,3.5c-4.8,0-8.8-1.7-12.1-5.2c-3.3-3.5-5-7.7-5-12.6
		c0-4.9,1.7-9.1,5-12.6c3.3-3.5,7.4-5.2,12.1-5.2c4.2,0,7.8,1.2,10.9,3.5V32.8z M310.5,60.8c4.2,0,7.5-1.6,9.8-4.9V43.6
		c-2.3-3.3-5.6-4.9-9.8-4.9c-3.1,0-5.6,1.1-7.7,3.2c-2,2.1-3.1,4.7-3.1,7.8c0,3.1,1,5.7,3.1,7.8C304.9,59.7,307.4,60.8,310.5,60.8z"
		/>
	<path d="M360.5,59.3l1.1,6.8c-2.5,0.9-5.1,1.4-7.7,1.4c-4.3,0-7.5-1.2-9.8-3.6c-2.3-2.4-3.4-5.8-3.4-10.3V39.1h-8v-6.3h8V20.4h7.5
		v12.5h12.5v6.3h-12.5v14.5c0,4.7,2.2,7,6.6,7C356.5,60.6,358.4,60.2,360.5,59.3z"/>
	<path d="M370.1,37c3.4-3.4,7.7-5.1,12.9-5.1c5.1,0,9.4,1.7,12.9,5.1c3.4,3.4,5.1,7.6,5.1,12.7c0,5.1-1.7,9.4-5.1,12.7
		c-3.4,3.4-7.7,5-12.9,5c-5.1,0-9.4-1.7-12.9-5c-3.4-3.4-5.1-7.6-5.1-12.7C364.9,44.7,366.6,40.4,370.1,37z M375.4,57.6
		c2,2.1,4.5,3.1,7.6,3.1c3.1,0,5.6-1,7.6-3.1c2-2.1,3-4.7,3-7.9c0-3.1-1-5.7-3-7.8c-2-2.1-4.5-3.2-7.6-3.2c-3.1,0-5.6,1.1-7.6,3.2
		c-2,2.1-3,4.7-3,7.8C372.4,52.9,373.4,55.5,375.4,57.6z"/>
	<path d="M415.7,37.4c3.3-3.6,7.4-5.3,12.5-5.3v7.1c-5.4,0.2-9.6,2.3-12.5,6.2v21.3h-7.5V32.8h7.5V37.4z"/>
</g>
<g>
	<path d="M473.3,60.3c4,0,7.4-1.1,10.2-3.2c2.7-2.2,4.6-5.2,5.5-9h8c-1.2,5.9-3.9,10.6-8.1,14.2c-4.3,3.6-9.5,5.3-15.6,5.3
		c-7.1,0-13.1-2.4-18-7.3c-4.9-4.8-7.4-10.9-7.4-18.1c0-7.3,2.4-13.3,7.3-18.1c4.9-4.8,10.9-7.2,18.1-7.2c6.1,0,11.3,1.8,15.6,5.3
		c4.3,3.5,7,8.2,8.1,14.1h-8c-1-3.8-2.8-6.8-5.5-9c-2.7-2.1-6.1-3.2-10.2-3.2c-5,0-9.2,1.7-12.6,5.1c-3.3,3.4-5,7.8-5,13
		c0,5.2,1.7,9.6,5,13C464,58.6,468.2,60.3,473.3,60.3z"/>
	<path d="M537,48.9c0,1.3,0,2.3-0.1,3.1l-0.1-0.1V52h-26.4c0.4,2.7,1.4,4.9,3.2,6.5c1.7,1.7,4.1,2.5,7.1,2.5c3.5,0,5.9-1.1,7.2-3.2
		h8.2c-1.1,3-3,5.4-5.8,7.1c-2.8,1.7-6,2.6-9.7,2.6c-5.3,0-9.6-1.7-12.9-5.1c-3.3-3.4-5-7.6-5-12.7c0-5,1.6-9.3,4.9-12.7
		c3.3-3.4,7.4-5.1,12.5-5.1c4.9,0,9,1.6,12.2,4.7C535.5,39.8,537,43.8,537,48.9z M526.7,40.5c-1.6-1.5-3.8-2.2-6.5-2.2
		c-2.7,0-4.9,0.8-6.5,2.4c-1.7,1.6-2.7,3.6-3.2,6.1h19.1C529.3,44.1,528.3,42,526.7,40.5z"/>
	<path d="M562.7,32c4.4,0,8,1.4,10.7,4.3c2.7,2.9,4.1,6.7,4.1,11.6v18.9H570V48.2c0-3.1-0.8-5.4-2.3-7.1c-1.5-1.6-3.7-2.4-6.5-2.4
		c-3.6,0-6.7,1.7-9.4,5.1v22.8h-7.5V32.8h7.5v3C554.8,33.3,558.5,32,562.7,32z"/>
	<path d="M609,59.3l1.1,6.8c-2.5,0.9-5.1,1.4-7.7,1.4c-4.3,0-7.5-1.2-9.8-3.6c-2.3-2.4-3.4-5.8-3.4-10.3V39.1h-8v-6.3h8V20.4h7.5
		v12.5h12.5v6.3h-12.5v14.5c0,4.7,2.2,7,6.6,7C605.1,60.6,607,60.2,609,59.3z"/>
	<path d="M647.9,48.9c0,1.3,0,2.3-0.1,3.1l-0.1-0.1V52h-26.4c0.4,2.7,1.4,4.9,3.2,6.5c1.7,1.7,4.1,2.5,7.1,2.5
		c3.5,0,5.9-1.1,7.2-3.2h8.2c-1.1,3-3,5.4-5.8,7.1s-6,2.6-9.7,2.6c-5.3,0-9.6-1.7-12.9-5.1c-3.3-3.4-5-7.6-5-12.7
		c0-5,1.6-9.3,4.9-12.7c3.3-3.4,7.4-5.1,12.5-5.1c4.9,0,9,1.6,12.2,4.7C646.3,39.8,647.9,43.8,647.9,48.9z M637.5,40.5
		c-1.6-1.5-3.8-2.2-6.5-2.2c-2.7,0-4.9,0.8-6.5,2.4s-2.7,3.6-3.2,6.1h19.1C640.1,44.1,639.1,42,637.5,40.5z"/>
	<path d="M662.6,37.4c3.3-3.6,7.4-5.3,12.5-5.3v7.1c-5.4,0.2-9.6,2.3-12.5,6.2v21.3h-7.5V32.8h7.5V37.4z"/>
</g>
<g>
	<path class="st0" d="M46.8,60.6h-7.5v7H28.2v-7H0v-5.5l33.2-36.7h5.5v32.2h7.5v10.1H46.8z M93.6,61.6c-5,5-11.6,7.5-19.1,7.5
		c-7.5,0-14.1-2.5-19.1-7.5S47.8,50.5,47.8,43s2.5-13.6,7.5-18.6s11.6-7.5,19.1-7.5c7.5,0,14.1,2.5,19.1,7.5c5,5,7.5,11.1,7.5,18.6
		S98.6,56.6,93.6,61.6z M147.9,60.6h-7.5v7h-10.6v-7h-28.2v-5.5l33.2-36.7h5.5v32.2h7.5V60.6z"/>
</g>
</svg>
